<svg xmlns="http://www.w3.org/2000/svg" viewBox="0 0 93.84 15"><defs><style>.cls-1{fill:#005ead;}</style></defs><g id="Layer_2" data-name="Layer 2"><g id="文字"><path class="cls-1" d="M0,5.85V.43H14.21V5.85h-2c0-2.19-.61-3.53-3.1-3.53v9.51a.77.77,0,0,0,.85.85h1.28v1.89H2.93V12.68H4.27a.75.75,0,0,0,.79-.85V2.32c-2.44,0-3,1.34-3,3.53ZM19.58,7.5c0,3.78,1,5.55,3.1,5.55s3.11-1.77,3.11-5.55S24.82,2,22.68,2,19.58,3.78,19.58,7.5Zm10.85,0c0,4.63-3.05,7.5-7.75,7.5s-7.74-2.87-7.74-7.5S18,0,22.68,0,30.43,2.87,30.43,7.5Zm3-4.33a.75.75,0,0,0-.79-.85H31.34V.43h9c3.48,0,5.55,1.09,5.55,4s-2.07,4-6,4H37.5v3.36a.77.77,0,0,0,.85.85h1.41v1.89H31.34V12.68h1.34a.76.76,0,0,0,.8-.85V3.17Zm4,3.42h1.83c1.52,0,2.5-.8,2.5-2.14a2.05,2.05,0,0,0-2.14-2.13H37.5V6.59ZM48.9,3.17a.75.75,0,0,0-.79-.85H46.77V.43h9c3.48,0,5.55,1.09,5.55,4s-2.07,4-6,4H52.93v3.36a.77.77,0,0,0,.85.85h1.4v1.89H46.77V12.68h1.34a.75.75,0,0,0,.79-.85Zm4,3.42h1.83c1.52,0,2.49-.8,2.49-2.14a2.08,2.08,0,0,0-2.13-2.13H52.93V6.59ZM70.18.43,73.72,11.1c.42,1.34.73,1.58,1.52,1.58h.68v1.89H68.17V12.68h.61c.67,0,1.16-.06,1.16-.3a3.53,3.53,0,0,0-.06-.73l-.49-1.59H65.06l-.24.85a5.6,5.6,0,0,0-.37,1.41c0,.3.79.36,1.34.36h.61v1.89H60.12V12.68h.74c.73,0,1-.24,1.46-1.58L65.92.43Zm-4.51,7.8h3.11L67.25,3.6h-.06Zm23.66,1.95h.06v-7a.77.77,0,0,0-.85-.85H87.25V.43h6.59V2.32H92.56a.77.77,0,0,0-.85.85v11.4H87.38L81.46,4.09H81.4v7.74a.77.77,0,0,0,.85.85h1.29v1.9H77v-1.9h1.34a.75.75,0,0,0,.79-.85V3.17a.75.75,0,0,0-.79-.85H77V.43h6.89l5.49,9.75Z"/></g></g></svg>